<svg width="24" height="24" viewBox="0 0 24 24" fill="none" xmlns="http://www.w3.org/2000/svg">
<path fill-rule="evenodd" clip-rule="evenodd" d="M18.0146 1.83008L18.0885 8.31524L12.4321 11.0306L12.3623 4.90734L18.0146 1.83008Z" fill="#FAFAFA"/>
<path fill-rule="evenodd" clip-rule="evenodd" d="M23.6847 12.0491L18.0852 15.2519L12.4824 12.044L18.0823 9.10254L23.6847 12.0491Z" fill="#FAFAFA"/>
<path fill-rule="evenodd" clip-rule="evenodd" d="M11.4864 12.0491L5.88698 15.2519L0.28418 12.044L5.88407 9.10254L11.4864 12.0491Z" fill="#FAFAFA"/>
<path fill-rule="evenodd" clip-rule="evenodd" d="M5.82422 1.80359L11.6361 4.68198L11.4875 10.9546L6 8.23689L5.82422 1.80359Z" fill="#FAFAFA"/>
<path fill-rule="evenodd" clip-rule="evenodd" d="M18.1722 22.1965L12.3604 19.3181L12.5089 13.0454L17.9964 15.7632L18.1722 22.1965Z" fill="#FAFAFA"/>
<path fill-rule="evenodd" clip-rule="evenodd" d="M6.02505 22.2548L5.95117 15.7696L11.6076 13.0543L11.6774 19.1775L6.02505 22.2548Z" fill="#FAFAFA"/>
</svg>
