<svg width="24" height="24" viewBox="0 0 24 24" fill="none" xmlns="http://www.w3.org/2000/svg">
<path fill-rule="evenodd" clip-rule="evenodd" d="M4.56629 20.6555C4.48391 20.578 4.40244 20.499 4.32192 20.4185C0.0710794 16.1677 0.0710801 9.27567 4.32192 5.02486C8.57273 0.774001 22.1175 0.489624 22.1175 0.489624C22.1175 0.489624 23.9664 16.1677 19.7156 20.4185C15.9403 24.1938 10.0817 24.6161 5.84034 21.6855L9.25791 17.4916L14.7212 16.3121L10.2615 15.8662L13.0957 12.9805L16.3218 12.2738L13.7708 11.5183L16.3218 6.91631L12.6932 10.9864L11.292 9.00904L11.7853 12.2738L9.25791 15.1229L8.08636 11.5183V16.3121L4.56629 20.6555Z" fill="#FAFAFA"/>
</svg>
