<svg width="24" height="24" viewBox="0 0 24 24" fill="none" xmlns="http://www.w3.org/2000/svg">
<g clip-path="url(#clip0_14019_1996)">
<path fill-rule="evenodd" clip-rule="evenodd" d="M10.7526 21.2273C11.2086 21.2971 11.6756 21.3333 12.1511 21.3333C17.2136 21.3333 21.3177 17.2293 21.3177 12.1667C21.3177 7.10405 17.2136 3 12.1511 3C11.8114 3 11.476 3.01847 11.146 3.05447C13.6573 4.95708 15.3177 8.25291 15.3177 12C15.3177 15.9394 13.4825 19.38 10.7526 21.2273ZM11.9844 24C18.6118 24 23.9844 18.6274 23.9844 12C23.9844 5.37258 18.6118 0 11.9844 0C5.35694 0 -0.015625 5.37258 -0.015625 12C-0.015625 18.6274 5.35694 24 11.9844 24Z" fill="#FAFAFA"/>
</g>
<defs>
<clipPath id="clip0_14019_1996">
<rect width="24" height="24" fill="white"/>
</clipPath>
</defs>
</svg>
