<svg width="264" height="264" viewBox="0 0 264 264" fill="none" xmlns="http://www.w3.org/2000/svg">
<path d="M159.5 132C159.5 139.293 156.603 146.288 151.445 151.445C146.288 156.603 139.293 159.5 132 159.5C124.707 159.5 117.712 156.603 112.555 151.445C107.397 146.288 104.5 139.293 104.5 132C104.5 124.707 107.397 117.712 112.555 112.555C117.712 107.397 124.707 104.5 132 104.5C139.293 104.5 146.288 107.397 151.445 112.555C156.603 117.712 159.5 124.707 159.5 132ZM242 132C242 192.72 192.72 242 132 242C71.28 242 22 192.72 22 132C22 71.28 71.28 22 132 22C192.72 22 242 71.28 242 132ZM220 132H176C176 107.69 156.31 88 132 88C107.69 88 88 107.69 88 132H44C44 180.51 83.49 220 132 220C180.51 220 220 180.51 220 132Z" fill="#FAFAFA"/>
</svg>
